<?xml version="1.0" encoding="UTF-8"?>
<svg version="1.1" xmlns="http://www.w3.org/2000/svg" width="169" height="172">
<path d="M0 0 C4.3085773 0.47873081 6.15811222 2.89375056 9 6 C9.57234375 6.60328125 10.1446875 7.2065625 10.734375 7.828125 C18.70471276 16.47968821 21.34138077 23.99978261 21.2109375 35.6875 C20.34698926 49.2546872 10.93747137 60.97713439 1.1015625 69.6796875 C-0.87788184 71.22482338 -2.89934166 72.62358236 -5 74 C-5.96808594 74.63679688 -6.93617187 75.27359375 -7.93359375 75.9296875 C-28.69357968 89.13832201 -52.00745864 95.62726 -75.78442383 101.12255859 C-83.04616827 102.84188137 -89.79220128 104.91113766 -96.61816406 107.94262695 C-99 109 -99 109 -102 110 C-102.69937532 111.31647119 -103.36729133 112.65022151 -104 114 C-104.99 114.495 -104.99 114.495 -106 115 C-108.36503644 110.26992712 -107.34704383 104.20444622 -105.9375 99.3125 C-99.29608297 87.95781927 -88.49359201 83.52187027 -76.519104 79.49383545 C-73.05265097 78.3241001 -69.60033677 77.11424208 -66.1484375 75.90234375 C-65.45531464 75.65913391 -64.76219177 75.41592407 -64.04806519 75.16534424 C-22.93505312 60.93883711 -22.93505312 60.93883711 6.4375 30.5625 C9.07587851 23.89231364 8.74018817 18.42014688 6.25 11.75 C4.62486991 8.01220079 2.69545626 5.08052144 0 2 C0 1.34 0 0.68 0 0 Z " fill="#3870BF" transform="translate(125,23)"/>
<path d="M0 0 C11.05312848 -0.88189855 19.96970572 1.36016338 28.625 8.5 C32.1623176 11.66418283 33.63789409 14.79602845 34.40625 19.47265625 C34.73403663 28.52776185 31.66697819 35.39786874 26.0546875 42.44140625 C6.5445535 63.13942664 -21.14410119 70.48633908 -48.125 75.5625 C-59.81780033 77.59165819 -59.81780033 77.59165819 -69.1875 84.25 C-69.785625 85.1575 -70.38375 86.065 -71 87 C-71.99 86.34 -72.98 85.68 -74 85 C-74.8242046 80.5072769 -74.35805539 76.14130156 -73 71.8125 C-61.29041085 55.34589025 -37.04986498 49.17833509 -19.03125 42.53515625 C-6.39820104 37.82784158 7.58623045 31.68723788 14 19 C14.63071712 16.22484467 14.58194002 13.78540224 14 11 C10.47048652 5.87651269 5.7580254 4.54300027 0 3 C0 2.01 0 1.02 0 0 Z " fill="#F38813" transform="translate(78,10)"/>
<path d="M0 0 C5.63794789 5.18365043 6.71150179 10.46155207 7.32421875 17.9765625 C7.92304859 33.45428253 3.63058171 46.87055402 -6.40625 58.87890625 C-23.89544991 77.37116321 -48.86096014 86.29030243 -73.1875 91.5625 C-88.60231983 94.78378065 -88.60231983 94.78378065 -103 101 C-103.495 101.99 -103.495 101.99 -104 103 C-104.99 103 -105.98 103 -107 103 C-107.50657287 97.68098483 -106.32610043 95.13515188 -103 91 C-97.64595587 86.20953947 -91.66259951 82.6870277 -85.1484375 79.7109375 C-84.50111664 79.41367767 -83.85379578 79.11641785 -83.18685913 78.81015015 C-81.1274424 77.86697254 -79.06440131 76.93221247 -77 76 C-75.99845886 75.54711609 -75.99845886 75.54711609 -74.97668457 75.08508301 C-71.58954016 73.55507988 -68.19988883 72.03071104 -64.80932617 70.50830078 C-38.58250082 59.02432291 -38.58250082 59.02432291 -15 43 C-14.31421875 42.43925781 -13.6284375 41.87851563 -12.921875 41.30078125 C-5.83594503 34.93884847 -0.53088847 24.37876271 0.15454102 14.85205078 C0.19553804 12.5851853 0.17549847 10.32910432 0.125 8.0625 C0.11597656 7.28326172 0.10695313 6.50402344 0.09765625 5.70117188 C0.07433691 3.80064553 0.03847586 1.90027992 0 0 Z " fill="#42B63D" transform="translate(155,60)"/>
<path d="M0 0 C2.5625 1.6875 2.5625 1.6875 4.5625 4.6875 C5.18456673 8.21254479 5.19042347 10.59175275 3.3828125 13.74609375 C-2.80797184 21.58084235 -11.83982325 24.87101713 -21.4375 26.6875 C-25.83288532 27.18371826 -30.24515451 27.46295027 -34.66015625 27.72265625 C-39.2513373 28.07685217 -42.81013382 28.64308073 -46.90625 30.8203125 C-48.65421875 31.74457031 -48.65421875 31.74457031 -50.4375 32.6875 C-51.4275 32.3575 -52.4175 32.0275 -53.4375 31.6875 C-45.39979716 17.14908451 -28.42330494 10.68276831 -13.4375 5.6875 C-13.4375 5.0275 -13.4375 4.3675 -13.4375 3.6875 C-14.4275 3.6875 -15.4175 3.6875 -16.4375 3.6875 C-16.125 1.75 -16.125 1.75 -15.4375 -0.3125 C-10.14838926 -2.07553691 -5.20480366 -1.98728867 0 0 Z " fill="#F38714" transform="translate(66.4375,17.3125)"/>
<path d="M0 0 C8.57069757 -0.53847315 15.13664668 0.5326946 23 4 C23 4.99 23 5.98 23 7 C23.66 7 24.32 7 25 7 C26.47265625 8.42578125 26.47265625 8.42578125 28.0625 10.3125 C28.58972656 10.92738281 29.11695312 11.54226562 29.66015625 12.17578125 C32.07291647 15.46079298 32.16047506 18.42935827 32.1875 22.375 C32.20167969 23.31085937 32.21585938 24.24671875 32.23046875 25.2109375 C31.98668108 28.16118154 31.23112508 30.32364112 30 33 C29.01 33 28.02 33 27 33 C26.95875 33.845625 26.9175 34.69125 26.875 35.5625 C25.71090777 40.13571949 23.22600877 42.66547105 20 46 C15.89560456 45.46621219 13.70622057 44.28119171 10.5625 41.625 C7.15167957 38.84729172 4.02298951 36.75361081 0 35 C0.66 34.360625 1.32 33.72125 2 33.0625 C10.41061029 25.30731544 10.41061029 25.30731544 14.375 15.1875 C14.30893932 11.8724549 14.03907974 11.05672866 12.0625 8.1875 C8.24666755 5.46190539 4.49664777 4.20498404 0 3 C0 2.01 0 1.02 0 0 Z " fill="#FABF0A" transform="translate(78,10)"/>
<path d="M0 0 C2 0 2 0 3.40234375 1.25 C9.93321816 8.69486447 11.55545326 14.91110719 11.28125 24.828125 C10.13727503 37.72962054 1.9317419 48.15332231 -7 57 C-10 59 -10 59 -11.9921875 58.94921875 C-14.92481479 57.56278211 -15.65490962 55.66416747 -17.125 52.8125 C-17.63546875 51.8225 -18.1459375 50.8325 -18.671875 49.8125 C-20.03384536 46.92832747 -21.1670994 44.08173224 -22 41 C-19.35261084 39.5393715 -18.10551666 39 -15 39 C-15 38.34 -15 37.68 -15 37 C-12.525 36.505 -12.525 36.505 -10 36 C-10 35.34 -10 34.68 -10 34 C-9.34 34 -8.68 34 -8 34 C-7.79375 33.01 -7.5875 32.02 -7.375 31 C-6.2456138 26.92761471 -4.04574939 24.1810543 -1.33984375 20.9921875 C1.67433223 16.51046812 0.99925609 11.88004465 0.5625 6.6875 C0.46066406 5.43324219 0.35882813 4.17898437 0.25390625 2.88671875 C0.12822266 1.45779297 0.12822266 1.45779297 0 0 Z " fill="#07ABEC" transform="translate(135,34)"/>
<path d="M0 0 C5.63794789 5.18365043 6.71150179 10.46155207 7.32421875 17.9765625 C7.91958774 33.36483109 3.75610811 47.4811219 -6.72265625 59.125 C-14.39537536 67.19923613 -14.39537536 67.19923613 -20 69 C-20.65474408 67.31593731 -21.29833406 65.62753664 -21.9375 63.9375 C-22.29714844 62.99777344 -22.65679687 62.05804688 -23.02734375 61.08984375 C-24.12725045 57.59576261 -24.93673524 54.67779145 -25 51 C-22.9375 48.62890625 -22.9375 48.62890625 -20 46.5625 C-9.56903145 38.70609621 -2.99587511 29.89704084 0 17 C0.21717291 14.01344892 0.19166527 11.05474517 0.125 8.0625 C0.11597656 7.28326172 0.10695312 6.50402344 0.09765625 5.70117188 C0.07433691 3.80064553 0.03847586 1.90027992 0 0 Z " fill="#7ECB2C" transform="translate(155,60)"/>
<path d="M0 0 C1.34977849 0.63270867 2.68352881 1.30062468 4 2 C7.20898563 1.2086563 7.20898563 1.2086563 10 0 C8 3 8 3 5 4 C4.67 4.99 4.34 5.98 4 7 C9.00890086 6.38487182 14.00632136 5.7282448 19 5 C18.7018576 6.34164079 18.35858516 7.67323492 18 9 C17.773125 9.886875 17.54625 10.77375 17.3125 11.6875 C16.879375 12.450625 16.44625 13.21375 16 14 C12.875 14.8125 12.875 14.8125 10 15 C10 15.66 10 16.32 10 17 C-0.31452712 20.64141762 -9.07665011 22.17777604 -20 22 C-20 22.99 -20 23.98 -20 25 C-22.64458379 26.32229189 -24.67761301 26.09677194 -27.625 26.0625 C-28.62789062 26.05347656 -29.63078125 26.04445313 -30.6640625 26.03515625 C-31.43492188 26.02355469 -32.20578125 26.01195313 -33 26 C-33 24.35 -33 22.7 -33 21 C-32.34 21 -31.68 21 -31 21 C-31.66 19.68 -32.32 18.36 -33 17 C-31 14 -31 14 -27.4375 13 C-26.303125 12.67 -25.16875 12.34 -24 12 C-23.67 11.01 -23.34 10.02 -23 9 C-20.03 9 -17.06 9 -14 9 C-14 7.68 -14 6.36 -14 5 C-12.80375 4.731875 -11.6075 4.46375 -10.375 4.1875 C-7.44135026 3.47741163 -5.46420023 2.71149243 -2.75 1.25 C-1.8425 0.8375 -0.935 0.425 0 0 Z " fill="#F58614" transform="translate(50,59)"/>
<path d="M0 0 C0.99 0.495 0.99 0.495 2 1 C0.13674558 7.91365457 -2.6830369 13.30359352 -7 19 C-7.52980469 19.71929687 -8.05960938 20.43859375 -8.60546875 21.1796875 C-20.3803853 35.78786212 -40.90021512 46.45313004 -59 50 C-62.37115705 50.25899317 -65.63160624 50.27940593 -69 50 C-69 49.34 -69 48.68 -69 48 C-68.01902344 47.5875 -67.03804688 47.175 -66.02734375 46.75 C-40.83575767 36.02917128 -16.62016133 22.33608983 0 0 Z " fill="#4DA84B" transform="translate(154,117)"/>
<path d="M0 0 C0 2 0 2 -1.25390625 3.52734375 C-7.16921411 8.51631705 -16.64436716 8.94208326 -24 10 C-24 10.66 -24 11.32 -24 12 C-27.3171411 13.4216319 -30.44219804 14.39009109 -34 15 C-34 16.32 -34 17.64 -34 19 C-36.97 19 -39.94 19 -43 19 C-43.33 20.32 -43.66 21.64 -44 23 C-46.31 23.33 -48.62 23.66 -51 24 C-51.93423645 27.01031744 -52.04449911 27.86650268 -51 31 C-51.66 31 -52.32 31 -53 31 C-53 32.65 -53 34.3 -53 36 C-51.515 35.505 -51.515 35.505 -50 35 C-47.29876894 35.16011121 -44.68124769 35.60440608 -42 36 C-42 36.33 -42 36.66 -42 37 C-43.42892578 37.34611328 -43.42892578 37.34611328 -44.88671875 37.69921875 C-46.76810547 38.18841797 -46.76810547 38.18841797 -48.6875 38.6875 C-49.92886719 39.00074219 -51.17023437 39.31398437 -52.44921875 39.63671875 C-56.38693809 41.14856039 -58.20899344 42.89616608 -61 46 C-61.99 46.66 -62.98 47.32 -64 48 C-66.48002593 45.51997407 -66.29694693 44.67167487 -66.3125 41.25 C-66.13990884 34.91862944 -64.38694744 31.11851565 -59.875 26.6875 C-47.7274398 16.69267199 -32.12040084 11.41719487 -17.59033203 5.97509766 C-15.29086791 5.10949354 -13.00084993 4.22463313 -10.71484375 3.32421875 C-2.25915493 0 -2.25915493 0 0 0 Z " fill="#EE8A1A" transform="translate(70,49)"/>
<path d="M0 0 C0 0.66 0 1.32 0 2 C-2.97 3.32 -5.94 4.64 -9 6 C-8.01 6.66 -7.02 7.32 -6 8 C-6 8.66 -6 9.32 -6 10 C-6.66 10 -7.32 10 -8 10 C-8 11.32 -8 12.64 -8 14 C-7.113125 14.144375 -6.22625 14.28875 -5.3125 14.4375 C-3.40444188 14.76150987 -1.50030349 15.12307796 0.37890625 15.5859375 C3.28910686 16.04567113 5.37094188 15.77257175 8.25 15.1875 C9.20132813 14.99671875 10.15265625 14.8059375 11.1328125 14.609375 C12.07898437 14.40828125 13.02515625 14.2071875 14 14 C15.32644531 13.72929688 15.32644531 13.72929688 16.6796875 13.453125 C20.66407524 12.91382552 20.66407524 12.91382552 24 11 C25.84599688 10.60545777 27.70225822 10.25823134 29.5625 9.9375 C30.57441406 9.76089844 31.58632812 9.58429688 32.62890625 9.40234375 C33.41136719 9.26957031 34.19382813 9.13679688 35 9 C35.495 9.99 35.495 9.99 36 11 C34.88141602 11.27674561 33.76283203 11.55349121 32.61035156 11.83862305 C28.40334712 12.88215267 24.19956699 13.93821088 19.99658203 14.99780273 C18.18784881 15.45199574 16.37829299 15.90292732 14.56787109 16.3503418 C4.30838389 18.88827465 -5.36135328 21.61055431 -15 26 C-15.99 26.33 -16.98 26.66 -18 27 C-18.69937532 28.31647119 -19.36729133 29.65022151 -20 31 C-20.66 31.33 -21.32 31.66 -22 32 C-24.36503644 27.26992712 -23.34704383 21.20444622 -21.9375 16.3125 C-17.77831824 9.20164086 -8.91550962 0 0 0 Z " fill="#3970BD" transform="translate(41,106)"/>
<path d="M0 0 C5.63794789 5.18365043 6.71150179 10.46155207 7.32421875 17.9765625 C7.90815824 33.06941743 3.94991116 46.99195706 -6.23046875 58.52734375 C-8.10599587 60.41614894 -10.00526576 62.23841652 -12 64 C-12.66 63.01 -13.32 62.02 -14 61 C-13.01 61 -12.02 61 -11 61 C-10.896875 60.29875 -10.79375 59.5975 -10.6875 58.875 C-9.14937385 52.44283611 -5.58236094 47.63341789 -1 43 C-0.01 42.505 -0.01 42.505 1 42 C1.42985694 39.67646015 1.42985694 39.67646015 1.5625 37 C1.90381679 32.09618321 1.90381679 32.09618321 3 31 C3.04063832 29.33382885 3.042721 27.66611905 3 26 C2.34 26 1.68 26 1 26 C0.67 27.32 0.34 28.64 0 30 C-0.66 30 -1.32 30 -2 30 C-2.33 31.65 -2.66 33.3 -3 35 C-3.66 35 -4.32 35 -5 35 C-5 35.66 -5 36.32 -5 37 C-6.42578125 38.296875 -6.42578125 38.296875 -8.3125 39.75 C-11.67126319 42.50297424 -13.0897988 45.09277026 -15 49 C-18.2056472 51.44641497 -21.02763121 52.43251874 -25 53 C-23.56357935 49.50394973 -21.87230398 47.91977494 -18.8125 45.75 C-8.94459476 38.28967356 -2.81513164 29.11895237 0 17 C0.21717291 14.01344892 0.19166527 11.05474517 0.125 8.0625 C0.11597656 7.28326172 0.10695312 6.50402344 0.09765625 5.70117188 C0.07433691 3.80064553 0.03847586 1.90027992 0 0 Z " fill="#88B845" transform="translate(155,60)"/>
<path d="M0 0 C0.66 0 1.32 0 2 0 C6.02830983 4.50222863 6.40971491 7.87306085 6.23828125 13.828125 C6 16 6 16 5 18 C5.99 18 6.98 18 8 18 C8.08131463 19.43655854 8.13933559 20.8744483 8.1875 22.3125 C8.23970703 23.51326172 8.23970703 23.51326172 8.29296875 24.73828125 C7.9309267 27.53324585 7.0041434 28.11855926 5 30 C4.26958147 33.61023099 4.26958147 33.61023099 4 37 C3.236875 36.979375 2.47375 36.95875 1.6875 36.9375 C-1.10185786 36.87057159 -1.10185786 36.87057159 -4 38 C-4 37.01 -4 36.02 -4 35 C-4.61875 35.20625 -5.2375 35.4125 -5.875 35.625 C-6.57625 35.74875 -7.2775 35.8725 -8 36 C-8.66 35.34 -9.32 34.68 -10 34 C-9.34 34 -8.68 34 -8 34 C-7.79375 33.01 -7.5875 32.02 -7.375 31 C-6.2456138 26.92761471 -4.04574939 24.1810543 -1.33984375 20.9921875 C1.67433223 16.51046812 0.99925609 11.88004465 0.5625 6.6875 C0.46066406 5.43324219 0.35882813 4.17898437 0.25390625 2.88671875 C0.17011719 1.93410156 0.08632812 0.98148438 0 0 Z " fill="#05ACEE" transform="translate(135,34)"/>
<path d="M0 0 C0.66 0 1.32 0 2 0 C2.33 0.66 2.66 1.32 3 2 C5.64 2 8.28 2 11 2 C11.33 2.99 11.66 3.98 12 5 C11.67 5.33 11.34 5.66 11 6 C11.99 6.33 12.98 6.66 14 7 C12.69456614 10.91630159 11.48750205 13.67499864 8 16 C1.93019204 16.40221619 -4.4903715 14.43448701 -10 12 C-10.66 11.34 -11.32 10.68 -12 10 C-9.69 10 -7.38 10 -5 10 C-4.67 8.02 -4.34 6.04 -4 4 C-2.68 4.33 -1.36 4.66 0 5 C0 3.35 0 1.7 0 0 Z " fill="#F8BF0C" transform="translate(55,19)"/>
<path d="M0 0 C6.93756372 0.77084041 11.71677677 9.02553613 16 14 C15.67 14.66 15.34 15.32 15 16 C13.5 14.625 13.5 14.625 12 13 C12 12.34 12 11.68 12 11 C11.34 11 10.68 11 10 11 C10.16757813 12.09699219 10.33515625 13.19398437 10.5078125 14.32421875 C10.7142334 15.77854782 10.91992417 17.23298065 11.125 18.6875 C11.23714844 19.40873047 11.34929687 20.12996094 11.46484375 20.87304688 C12.22327826 26.40961882 11.72457299 29.52561267 8.5625 34.0625 C8.046875 34.701875 7.53125 35.34125 7 36 C4.75498905 38.89113606 3.10447203 41.46568952 2 45 C1.34 45 0.68 45 0 45 C0 45.66 0 46.32 0 47 C-0.66 47 -1.32 47 -2 47 C-2.33 47.66 -2.66 48.32 -3 49 C-3.66 48.67 -4.32 48.34 -5 48 C-5 48.66 -5 49.32 -5 50 C-6.98 50.66 -8.96 51.32 -11 52 C-9.6891503 48.53388822 -7.61699435 46.64536533 -4.80957031 44.29638672 C2.11319672 38.4968501 6.75937814 32.81772932 8.42578125 23.66015625 C8.92980101 15.46623503 5.29104946 8.04691367 0 2 C0 1.34 0 0.68 0 0 Z " fill="#15A7D6" transform="translate(125,23)"/>
<path d="M0 0 C5.73787834 6.78112895 5.64314882 14.52676955 5 23 C2.88899006 34.31785162 -4.81646182 44.26283663 -13 52 C-15.2734375 53.28125 -15.2734375 53.28125 -17 54 C-17 53.34 -17 52.68 -17 52 C-16.01 51.505 -16.01 51.505 -15 51 C-14.71125 50.071875 -14.4225 49.14375 -14.125 48.1875 C-12.90334545 44.72614543 -11.54276805 43.54276805 -9 41 C-7.73215876 37.86649283 -7.73215876 37.86649283 -7 35 C-6.67 35.66 -6.34 36.32 -6 37 C-5.01 37 -4.02 37 -3 37 C-2.855625 36.38125 -2.71125 35.7625 -2.5625 35.125 C-2 33 -2 33 -1 31 C-0.34 31 0.32 31 1 31 C1 29.35 1 27.7 1 26 C1.66 26 2.32 26 3 26 C3 21.05 3 16.1 3 11 C1.68 10.34 0.36 9.68 -1 9 C-1.09765625 2.84765625 -1.09765625 2.84765625 -1 1 C-0.67 0.67 -0.34 0.34 0 0 Z " fill="#0EA8E3" transform="translate(141,39)"/>
<path d="M0 0 C2.5625 1.6875 2.5625 1.6875 4.5625 4.6875 C5.20327729 8.31857129 5.22018061 10.65454343 3.20703125 13.81640625 C-0.15676212 17.84850294 -3.36495533 20.95822341 -8.4375 22.6875 C-9.4275 22.3575 -10.4175 22.0275 -11.4375 21.6875 C-10.7775 21.6875 -10.1175 21.6875 -9.4375 21.6875 C-9.4375 20.6975 -9.4375 19.7075 -9.4375 18.6875 C-8.15875 18.44 -6.88 18.1925 -5.5625 17.9375 C-2.28806909 17.19696905 -2.28806909 17.19696905 -0.0625 14.8125 C0.246875 13.760625 0.246875 13.760625 0.5625 12.6875 C1.22916667 11.35416667 1.89583333 10.02083333 2.5625 8.6875 C1.2425 8.3575 -0.0775 8.0275 -1.4375 7.6875 C-1.1075 6.3675 -0.7775 5.0475 -0.4375 3.6875 C-3.0775 4.0175 -5.7175 4.3475 -8.4375 4.6875 C-8.7675 3.6975 -9.0975 2.7075 -9.4375 1.6875 C-10.0975 1.6875 -10.7575 1.6875 -11.4375 1.6875 C-11.4375 3.3375 -11.4375 4.9875 -11.4375 6.6875 C-12.4275 7.0175 -13.4175 7.3475 -14.4375 7.6875 C-14.1075 6.3675 -13.7775 5.0475 -13.4375 3.6875 C-14.4275 3.6875 -15.4175 3.6875 -16.4375 3.6875 C-16.125 1.75 -16.125 1.75 -15.4375 -0.3125 C-10.14838926 -2.07553691 -5.20480366 -1.98728867 0 0 Z " fill="#EDBB20" transform="translate(66.4375,17.3125)"/>
<path d="M0 0 C0.66 0.33 1.32 0.66 2 1 C-0.70734257 11.04566587 -6.14526732 18.32922771 -13 26 C-13.99 25.67 -14.98 25.34 -16 25 C-17.1875 21.9375 -17.1875 21.9375 -18 19 C-17.28714844 18.38253906 -16.57429687 17.76507813 -15.83984375 17.12890625 C-9.85157616 11.8337625 -4.64348344 6.56109947 0 0 Z " fill="#7CB840" transform="translate(154,117)"/>
<path d="M0 0 C5.25803515 2.70413236 9.09608181 6.28824543 11 12 C12.2121728 20.94552838 9.92794182 27.54674359 5 35 C-2.0392518 43.83440236 -12.20067042 50.55212097 -22 56 C-22.66 56 -23.32 56 -24 56 C-24 55.34 -24 54.68 -24 54 C-23.01 54 -22.02 54 -21 54 C-20.67 53.01 -20.34 52.02 -20 51 C-19.01 50.690625 -18.02 50.38125 -17 50.0625 C-16.01 49.711875 -15.02 49.36125 -14 49 C-13.33820153 47.01954441 -13.33820153 47.01954441 -13 45 C-10.41847698 43.27898465 -9.15081975 43 -6 43 C-6 42.34 -6 41.68 -6 41 C-5.01 41 -4.02 41 -3 41 C-2.7525 40.443125 -2.505 39.88625 -2.25 39.3125 C-1 37 -1 37 1.0625 34.5 C2.86644927 32.17232353 3.57691542 30.8558209 4 28 C4.99 28 5.98 28 7 28 C7.81243525 24.44075986 8.13524922 21.14872305 8.125 17.5 C8.12757812 16.5821875 8.13015625 15.664375 8.1328125 14.71875 C8.00107646 12.02203572 7.72143954 9.60266165 7 7 C5.03327085 5.8499169 5.03327085 5.8499169 3 5 C2.67 4.01 2.34 3.02 2 2 C1.34 2 0.68 2 0 2 C0 1.34 0 0.68 0 0 Z " fill="#C9AA3C" transform="translate(101,15)"/>
<path d="M0 0 C0 2 0 2 -1.25390625 3.52734375 C-7.16921411 8.51631705 -16.64436716 8.94208326 -24 10 C-24 10.66 -24 11.32 -24 12 C-27.3171411 13.4216319 -30.44219804 14.39009109 -34 15 C-34 16.32 -34 17.64 -34 19 C-36.97 19 -39.94 19 -43 19 C-43 19.99 -43 20.98 -43 22 C-45.64 22 -48.28 22 -51 22 C-43.82794095 13.4655068 -27.36619355 9.68122754 -17.13183594 5.81103516 C-15.09571317 5.0364131 -13.0663991 4.24651476 -11.0390625 3.44921875 C-9.87117188 2.99160156 -8.70328125 2.53398438 -7.5 2.0625 C-6.4790625 1.66160156 -5.458125 1.26070312 -4.40625 0.84765625 C-2 0 -2 0 0 0 Z " fill="#D1883C" transform="translate(70,49)"/>
<path d="M0 0 C8.30085731 -0.51345509 14.51935975 0.29278005 22 4 C20.203125 5.0859375 20.203125 5.0859375 18 6 C14.75 4.625 14.75 4.625 12 3 C12.825 3.78375 13.65 4.5675 14.5 5.375 C17.52267867 8.97138822 17.49185321 12.07236699 17.37109375 16.6328125 C16.98323328 19.10695402 16.23995434 20.83879445 15 23 C14.34 23 13.68 23 13 23 C12.67 24.32 12.34 25.64 12 27 C11.34 27 10.68 27 10 27 C10 27.66 10 28.32 10 29 C8.25 30.5078125 8.25 30.5078125 6 32.125 C5.2575 32.66382813 4.515 33.20265625 3.75 33.7578125 C3.1725 34.16773438 2.595 34.57765625 2 35 C1.34 34.67 0.68 34.34 0 34 C0.75925781 33.33613281 1.51851563 32.67226563 2.30078125 31.98828125 C3.30498964 31.09669436 4.30887907 30.20474812 5.3125 29.3125 C6.29863281 28.44238281 7.28476563 27.57226562 8.30078125 26.67578125 C11.79735397 23.20956951 14.41826503 20.06756788 14.5 15 C14.34932523 11.7996678 13.97567455 10.96468886 12.0625 8.1875 C8.24666755 5.46190539 4.49664777 4.20498404 0 3 C0 2.01 0 1.02 0 0 Z " fill="#D6AE39" transform="translate(78,10)"/>
<path d="M0 0 C-3.46110447 2.30740298 -6.76239244 3.06139249 -10.74609375 3.98828125 C-12.32231352 4.36894237 -13.89848374 4.74980868 -15.47460938 5.13085938 C-17.9418036 5.71995649 -20.40966754 6.3059448 -22.87866211 6.88745117 C-32.67069842 9.20362345 -41.79912175 11.83040274 -51 16 C-51.99 16.33 -52.98 16.66 -54 17 C-54.69937532 18.31647119 -55.36729133 19.65022151 -56 21 C-56.66 21.33 -57.32 21.66 -58 22 C-60.22541672 17.54916655 -59.47279612 11.47748787 -58 6.875 C-57.67 6.25625 -57.34 5.6375 -57 5 C-55.6728739 8.9813783 -55.93084087 12.85045227 -56 17 C-54.68 16.34 -53.36 15.68 -52 15 C-52 14.34 -52 13.68 -52 13 C-50.15768246 12.30478583 -48.31462804 11.61148594 -46.46875 10.92578125 C-44.77605758 10.29102159 -43.08873588 9.64180733 -41.40625 8.98046875 C-35.85324538 6.85022129 -30.52547992 5.38650033 -24.65625 4.43359375 C-17.8122929 3.72652218 -17.8122929 3.72652218 -12 1 C-10.55413296 0.57948887 -9.09253432 0.21220044 -7.625 -0.125 C-6.43777344 -0.40730469 -6.43777344 -0.40730469 -5.2265625 -0.6953125 C-3 -1 -3 -1 0 0 Z " fill="#385D90" transform="translate(77,116)"/>
<path d="M0 0 C0.33 0 0.66 0 1 0 C1 2.97 1 5.94 1 9 C0.01 9.33 -0.98 9.66 -2 10 C-2.73323796 12.01508358 -2.73323796 12.01508358 -3 14 C-3.66 14 -4.32 14 -5 14 C-5.33 15.65 -5.66 17.3 -6 19 C-6.66 19 -7.32 19 -8 19 C-8 19.66 -8 20.32 -8 21 C-9.42578125 22.296875 -9.42578125 22.296875 -11.3125 23.75 C-14.67126319 26.50297424 -16.0897988 29.09277026 -18 33 C-21.2056472 35.44641497 -24.02763121 36.43251874 -28 37 C-26.56357935 33.50394973 -24.87230398 31.91977494 -21.8125 29.75 C-14.61107907 24.30558707 -9.95075798 18.5797151 -6.12890625 10.40625 C-2.34862385 2.34862385 -2.34862385 2.34862385 0 0 Z " fill="#87C23E" transform="translate(158,76)"/>
<path d="M0 0 C0.66 0.33 1.32 0.66 2 1 C1.34 2.32 0.68 3.64 0 5 C2.98001838 4.52570278 5.95894287 4.04581304 8.9375 3.5625 C9.78763672 3.42779297 10.63777344 3.29308594 11.51367188 3.15429688 C12.32255859 3.02216797 13.13144531 2.89003906 13.96484375 2.75390625 C15.08814087 2.57323608 15.08814087 2.57323608 16.23413086 2.38891602 C18.0170885 2.16240096 18.0170885 2.16240096 19 1 C21.53049402 0.92686433 24.03304837 0.90752473 26.5625 0.9375 C27.62887695 0.94426758 27.62887695 0.94426758 28.71679688 0.95117188 C30.47790013 0.96299136 32.23896036 0.98092737 34 1 C28.61752738 6.38247262 17.95387444 5.61300739 10.77734375 6.03515625 C6.1861627 6.38935217 2.62736618 6.95558073 -1.46875 9.1328125 C-2.6340625 9.74898437 -3.799375 10.36515625 -5 11 C-5.99 10.67 -6.98 10.34 -8 10 C-5.83735988 6.01618925 -3.28788824 3.11016455 0 0 Z " fill="#D38230" transform="translate(21,39)"/>
<path d="M0 0 C0.99 0.33 1.98 0.66 3 1 C-12.13148677 8.90531894 -28.09779379 12.43800301 -45 14 C-44.34 13.67 -43.68 13.34 -43 13 C-43 12.01 -43 11.02 -43 10 C-41.7934375 9.89042969 -40.586875 9.78085938 -39.34375 9.66796875 C-37.72911025 9.50838226 -36.11452992 9.34819381 -34.5 9.1875 C-33.70851563 9.11724609 -32.91703125 9.04699219 -32.1015625 8.97460938 C-28.03731956 8.55819104 -24.46783356 7.92937671 -20.65625 6.42578125 C-17 5 -17 5 -13 5 C-13 4.34 -13 3.68 -13 3 C-10.13109771 1.56554886 -7.26195706 1.56926882 -4.09375 1.28125 C-1.94556067 1.107845 -1.94556067 1.107845 0 0 Z " fill="#C88534" transform="translate(73,71)"/>
<path d="M0 0 C2.22189824 2.22189824 2.92598892 4.08482708 4 7 C-8.11617312 17.14806378 -8.11617312 17.14806378 -17 17 C-16.67 15.68 -16.34 14.36 -16 13 C-13.69 12.34 -11.38 11.68 -9 11 C-9.33 10.01 -9.66 9.02 -10 8 C-7.03 7.01 -4.06 6.02 -1 5 C-0.67 3.35 -0.34 1.7 0 0 Z " fill="#48B43F" transform="translate(136,137)"/>
<path d="M0 0 C1.65 0.33 3.3 0.66 5 1 C5.33 1.99 5.66 2.98 6 4 C6.99 4.33 7.98 4.66 9 5 C9 4.34 9 3.68 9 3 C14.19548425 0.79191919 17.58264203 1.06597276 23 2 C23 2.33 23 2.66 23 3 C22.04738281 3.23074219 21.09476563 3.46148437 20.11328125 3.69921875 C18.85902344 4.02535156 17.60476562 4.35148437 16.3125 4.6875 C15.07113281 5.00074219 13.82976563 5.31398438 12.55078125 5.63671875 C8.61306191 7.14856039 6.79100656 8.89616608 4 12 C3.01 12.66 2.02 13.32 1 14 C-1 12 -1 12 -1.23046875 9.6875 C-1.21628906 8.800625 -1.20210938 7.91375 -1.1875 7 C-1.18105469 6.113125 -1.17460938 5.22625 -1.16796875 4.3125 C-1 2 -1 2 0 0 Z " fill="#DF8828" transform="translate(5,83)"/>
<path d="M0 0 C1.3303125 0.5259375 1.3303125 0.5259375 2.6875 1.0625 C6.06203126 2.01755602 7.69686152 1.97151132 11 1 C11 1.99 11 2.98 11 4 C11.66 4 12.32 4 13 4 C14.47265625 5.42578125 14.47265625 5.42578125 16.0625 7.3125 C16.58972656 7.92738281 17.11695312 8.54226562 17.66015625 9.17578125 C20.09928707 12.49669697 20.16069589 15.51154888 20.1875 19.5 C20.20876953 20.93859375 20.20876953 20.93859375 20.23046875 22.40625 C20 25 20 25 18 28 C18.03480469 27.09636719 18.06960937 26.19273438 18.10546875 25.26171875 C18.13253906 24.08222656 18.15960938 22.90273438 18.1875 21.6875 C18.22230469 20.51574219 18.25710937 19.34398437 18.29296875 18.13671875 C18.3021045 15.01224618 18.3021045 15.01224618 16.48828125 13.20703125 C15.99714844 12.80871094 15.50601563 12.41039062 15 12 C15 11.34 15 10.68 15 10 C12.525 9.01 12.525 9.01 10 8 C10.66 7.67 11.32 7.34 12 7 C12 6.34 12 5.68 12 5 C10.35 5 8.7 5 7 5 C7 8.3 7 11.6 7 15 C6.01 15.495 6.01 15.495 5 16 C4.96132812 14.98679687 4.96132812 14.98679687 4.921875 13.953125 C4.68674888 8.27864207 4.68674888 8.27864207 1.9375 3.5 C1.298125 3.005 0.65875 2.51 0 2 C0 1.34 0 0.68 0 0 Z M8 8 C8.99 8.495 8.99 8.495 10 9 C9.01 9.495 9.01 9.495 8 10 C8 9.34 8 8.68 8 8 Z " fill="#F3BF1C" transform="translate(90,13)"/>
<path d="M0 0 C0.33 0.99 0.66 1.98 1 3 C-2.43188569 4.46173626 -5.73139486 5.48341418 -9.37890625 6.25390625 C-10.38244141 6.46853516 -11.38597656 6.68316406 -12.41992188 6.90429688 C-13.45697266 7.12150391 -14.49402344 7.33871094 -15.5625 7.5625 C-17.62640044 8.00083923 -19.69020642 8.43962352 -21.75390625 8.87890625 C-22.66470947 9.0704126 -23.5755127 9.26191895 -24.51391602 9.45922852 C-26.68852957 9.93224914 -28.84484528 10.4458713 -31 11 C-31 10.34 -31 9.68 -31 9 C-30.01 9 -29.02 9 -28 9 C-28 8.34 -28 7.68 -28 7 C-27.34 7 -26.68 7 -26 7 C-26 6.34 -26 5.68 -26 5 C-25.40832031 5.04640625 -24.81664063 5.0928125 -24.20703125 5.140625 C-18.5762039 5.39782429 -16.32823837 4.83358256 -12 1 C-9.75 1.3125 -9.75 1.3125 -8 2 C-7.67 1.67 -7.34 1.34 -7 1 C-4.53721199 -0.231394 -2.7204945 -0.07159196 0 0 Z " fill="#50A64C" transform="translate(94,145)"/>
<path d="M0 0 C0.66 0.66 1.32 1.32 2 2 C-2.14105326 9.76447486 -6.38145143 16.15504801 -13 22 C-13.66 21.01 -14.32 20.02 -15 19 C-14.01 19 -13.02 19 -12 19 C-11.896875 18.29875 -11.79375 17.5975 -11.6875 16.875 C-10.14937385 10.44283611 -6.58236094 5.63341789 -2 1 C-1.34 0.67 -0.68 0.34 0 0 Z " fill="#82C535" transform="translate(156,102)"/>
<path d="M0 0 C1.65 0 3.3 0 5 0 C2.95347516 2.1975816 1.01801514 3.70407599 -1.625 5.12109375 C-2.3267334 5.49766113 -3.0284668 5.87422852 -3.75146484 6.26220703 C-4.86448975 6.84397705 -4.86448975 6.84397705 -6 7.4375 C-6.75877441 7.83565918 -7.51754883 8.23381836 -8.29931641 8.64404297 C-20.00765221 14.68569324 -20.00765221 14.68569324 -26 16 C-26.99 15.67 -27.98 15.34 -29 15 C-26.61426621 13.10786631 -24.92824652 11.97608217 -22 11 C-21.67 10.34 -21.34 9.68 -21 9 C-17.66078354 8.10236117 -14.296365 7.459273 -10.90625 6.78125 C-9.9471875 6.5234375 -8.988125 6.265625 -8 6 C-7.67 5.34 -7.34 4.68 -7 4 C-5.35 4 -3.7 4 -2 4 C-2 3.34 -2 2.68 -2 2 C-1.34 2 -0.68 2 0 2 C0 1.34 0 0.68 0 0 Z " fill="#44AE43" transform="translate(129,130)"/>
<path d="M0 0 C5.72341424 6.76403501 5.67624401 14.54190325 5 23 C4.06479605 27.28383746 3.13538464 30.86461536 0 34 C0.33 31.36 0.66 28.72 1 26 C1.66 26 2.32 26 3 26 C3 21.05 3 16.1 3 11 C1.68 10.34 0.36 9.68 -1 9 C-1.09765625 2.84765625 -1.09765625 2.84765625 -1 1 C-0.67 0.67 -0.34 0.34 0 0 Z " fill="#1796C5" transform="translate(141,39)"/>
<path d="M0 0 C0.33 0.99 0.66 1.98 1 3 C-0.41519715 5.0343459 -1.54982123 5.90410393 -3.98046875 6.421875 C-5.98176954 6.66273952 -7.9909944 6.83532741 -10 7 C-10 7.66 -10 8.32 -10 9 C-11.98 9.66 -13.96 10.32 -16 11 C-16 11.66 -16 12.32 -16 13 C-17.57914015 13.53341184 -19.16354387 14.05125763 -20.75 14.5625 C-21.63171875 14.85253906 -22.5134375 15.14257812 -23.421875 15.44140625 C-26.13018796 16.02820739 -27.39972846 15.75639869 -30 15 C-29.26885986 14.65219482 -28.53771973 14.30438965 -27.78442383 13.94604492 C-24.45921153 12.36244719 -21.13584394 10.77501471 -17.8125 9.1875 C-16.08676758 8.36668945 -16.08676758 8.36668945 -14.32617188 7.52929688 C-13.21435547 6.99755859 -12.10253906 6.46582031 -10.95703125 5.91796875 C-9.42526245 5.18743286 -9.42526245 5.18743286 -7.86254883 4.44213867 C-5.1548106 3.07799285 -2.57672586 1.59570734 0 0 Z " fill="#4FA354" transform="translate(128,112)"/>
<path d="M0 0 C6.93756372 0.77084041 11.71677677 9.02553613 16 14 C15.67 14.66 15.34 15.32 15 16 C13.5 14.625 13.5 14.625 12 13 C12 12.34 12 11.68 12 11 C11.01 11 10.02 11 9 11 C9 12.65 9 14.3 9 16 C1.77419355 5.16129032 1.77419355 5.16129032 0 0 Z " fill="#248FB8" transform="translate(125,23)"/>
<path d="M0 0 C0.66 0.33 1.32 0.66 2 1 C1.34 2.98 0.68 4.96 0 7 C7.05651252 7.14975239 7.05651252 7.14975239 14 6 C10.19954992 9.81089087 5.8371808 9.75429476 0.75 10.1875 C-0.09046875 10.26935547 -0.9309375 10.35121094 -1.796875 10.43554688 C-3.86350783 10.63516482 -5.93164248 10.81912511 -8 11 C-7.19174172 6.73166973 -5.17109612 4.9390647 -2 2 C-1.34 1.34 -0.68 0.68 0 0 Z " fill="#ED871E" transform="translate(29,33)"/>
<path d="M0 0 C0.66 0.99 1.32 1.98 2 3 C0.2984375 3.680625 0.2984375 3.680625 -1.4375 4.375 C-5.04721692 5.57095806 -5.04721692 5.57095806 -6 8 C-6.66 8 -7.32 8 -8 8 C-6.88145414 11.72614153 -6.88145414 11.72614153 -4 14 C-4.639375 14.28875 -5.27875 14.5775 -5.9375 14.875 C-8.15206079 15.82823451 -8.15206079 15.82823451 -9 18 C-9.99 18 -10.98 18 -12 18 C-12.50657287 12.68098483 -11.32610043 10.13515188 -8 6 C-5.43415478 3.74706274 -2.84091885 1.8939459 0 0 Z " fill="#54A353" transform="translate(60,145)"/>
<path d="M0 0 C4.71687256 4.71687256 6 7.40640634 6 14 C4.125 16.125 4.125 16.125 2 18 C1.34 18.66 0.68 19.32 0 20 C0 13.4 0 6.8 0 0 Z " fill="#86B351" transform="translate(155,60)"/>
<path d="M0 0 C0.66 0.99 1.32 1.98 2 3 C1.52949219 3.36351563 1.05898437 3.72703125 0.57421875 4.1015625 C-3.56862843 7.44671861 -5.64118639 10.17515398 -8 15 C-11.2056472 17.44641497 -14.02763121 18.43251874 -18 19 C-16.56357935 15.50394973 -14.87230398 13.91977494 -11.8125 11.75 C-7.21005605 8.31678534 -3.59800343 4.45412001 0 0 Z " fill="#87BB4E" transform="translate(148,94)"/>
<path d="M0 0 C0.66 0.33 1.32 0.66 2 1 C0.34292168 6.64913063 -1.47762012 11.26300637 -5 16 C-5.33 15.34 -5.66 14.68 -6 14 C-5.67 13.34 -5.34 12.68 -5 12 C-5.99 11.34 -6.98 10.68 -8 10 C-5.36 6.7 -2.72 3.4 0 0 Z " fill="#78AC49" transform="translate(154,117)"/>
<path d="M0 0 C0 0.99 0 1.98 0 3 C-2.23046875 4.9375 -2.23046875 4.9375 -5.1875 7 C-6.15042969 7.680625 -7.11335938 8.36125 -8.10546875 9.0625 C-15.48185484 14 -15.48185484 14 -18 14 C-18 13.34 -18 12.68 -18 12 C-17.01 12 -16.02 12 -15 12 C-14.67 11.01 -14.34 10.02 -14 9 C-13.01 8.690625 -12.02 8.38125 -11 8.0625 C-9.515 7.5365625 -9.515 7.5365625 -8 7 C-7.855625 6.360625 -7.71125 5.72125 -7.5625 5.0625 C-7.376875 4.381875 -7.19125 3.70125 -7 3 C-3.4375 1.25 -3.4375 1.25 0 0 Z " fill="#C38239" transform="translate(95,57)"/>
<path d="M0 0 C0.33 0 0.66 0 1 0 C0.69203219 7.39122738 -2.64581361 11.84035642 -7.953125 16.83984375 C-9.60689003 18.26840094 -11.27795023 19.65496705 -13 21 C-13.33 20.01 -13.66 19.02 -14 18 C-13.01 18 -12.02 18 -11 18 C-10.7525 17.443125 -10.505 16.88625 -10.25 16.3125 C-9 14 -9 14 -6.9375 11.5 C-5.13355073 9.17232353 -4.42308458 7.8558209 -4 5 C-3.01 5 -2.02 5 -1 5 C-0.67 3.35 -0.34 1.7 0 0 Z " fill="#DCB534" transform="translate(109,38)"/>
<path d="M0 0 C0.66 0.66 1.32 1.32 2 2 C1.01 3.485 1.01 3.485 0 5 C-0.66 5 -1.32 5 -2 5 C-2 5.66 -2 6.32 -2 7 C-2.66 7 -3.32 7 -4 7 C-4.33 7.66 -4.66 8.32 -5 9 C-5.66 8.67 -6.32 8.34 -7 8 C-7 8.66 -7 9.32 -7 10 C-8.98 10.66 -10.96 11.32 -13 12 C-11.64416535 8.91245575 -10.17282591 6.95292371 -7.625 4.75 C-7.03976563 4.22921875 -6.45453125 3.7084375 -5.8515625 3.171875 C-4 2 -4 2 0 2 C0 1.34 0 0.68 0 0 Z " fill="#0FA7E1" transform="translate(127,63)"/>
<path d="M0 0 C0.33 0.66 0.66 1.32 1 2 C0.67 2.99 0.34 3.98 0 5 C-2.97 5 -5.94 5 -9 5 C-9.33 5.99 -9.66 6.98 -10 8 C-14.455 8.495 -14.455 8.495 -19 9 C-15.44221823 5.94654296 -11.56942569 4.46596636 -7.25 2.8125 C-6.55261719 2.53986328 -5.85523438 2.26722656 -5.13671875 1.98632812 C-3.42662746 1.31868975 -1.71359846 0.65858448 0 0 Z " fill="#E7B134" transform="translate(50,24)"/>
<path d="M0 0 C-0.66 1.65 -1.32 3.3 -2 5 C-3.32 5 -4.64 5 -6 5 C-6 5.66 -6 6.32 -6 7 C-9.96 7.66 -13.92 8.32 -18 9 C-18 9.66 -18 10.32 -18 11 C-18.66 11 -19.32 11 -20 11 C-19 8 -19 8 -15.69140625 6.2109375 C-14.3198671 5.58835717 -12.94329001 4.97678475 -11.5625 4.375 C-10.52125977 3.90707031 -10.52125977 3.90707031 -9.45898438 3.4296875 C-7.64209858 2.61358391 -5.82128277 1.80624323 -4 1 C-2 0 -2 0 0 0 Z " fill="#4EA655" transform="translate(82,135)"/>
<path d="M0 0 C1.2065625 0.0309375 1.2065625 0.0309375 2.4375 0.0625 C-0.274174 2.24452315 -2.74053849 3.6885623 -6.00390625 4.88671875 C-6.83470703 5.19287109 -7.66550781 5.49902344 -8.52148438 5.81445312 C-9.38064453 6.12318359 -10.23980469 6.43191406 -11.125 6.75 C-11.98802734 7.07033203 -12.85105469 7.39066406 -13.74023438 7.72070312 C-20.16644456 10.0625 -20.16644456 10.0625 -23.5625 10.0625 C-23.5625 9.4025 -23.5625 8.7425 -23.5625 8.0625 C-22.2321875 7.7221875 -22.2321875 7.7221875 -20.875 7.375 C-14.26728814 5.49486755 -6.46343965 0.15764487 0 0 Z " fill="#325999" transform="translate(100.5625,105.9375)"/>
<path d="M0 0 C0.99 0.33 1.98 0.66 3 1 C3 5.95 3 10.9 3 16 C2.34 16 1.68 16 1 16 C1 17.65 1 19.3 1 21 C0.34 21 -0.32 21 -1 21 C-1.33 21.66 -1.66 22.32 -2 23 C-2.80967438 20.08517222 -3.21845993 18.53886783 -2.0625 15.6875 C-1.711875 15.130625 -1.36125 14.57375 -1 14 C-0.34 14 0.32 14 1 14 C1.33 10.37 1.66 6.74 2 3 C1.01 3 0.02 3 -1 3 C-0.67 2.01 -0.34 1.02 0 0 Z " fill="#0FA8E1" transform="translate(141,49)"/>
<path d="M0 0 C0 0.66 0 1.32 0 2 C-0.99 2.495 -0.99 2.495 -2 3 C-2.99 4.485 -2.99 4.485 -4 6 C-4 5.34 -4 4.68 -4 4 C-4.721875 4.639375 -5.44375 5.27875 -6.1875 5.9375 C-8.98191184 7.98673535 -10.61663274 8.61332946 -14 9 C-14.33 8.01 -14.66 7.02 -15 6 C-12.87717331 4.99539469 -10.75166979 3.99644398 -8.625 3 C-7.44164063 2.443125 -6.25828125 1.88625 -5.0390625 1.3125 C-2 0 -2 0 0 0 Z " fill="#4BA850" transform="translate(98,128)"/>
<path d="M0 0 C0.33 1.32 0.66 2.64 1 4 C-1.97 4 -4.94 4 -8 4 C-8 4.99 -8 5.98 -8 7 C-10.64 7 -13.28 7 -16 7 C-12.60365611 3.26402172 -9.14189393 1.88215463 -4.25 0.875 C-3.45078125 0.70742187 -2.6515625 0.53984375 -1.828125 0.3671875 C-1.22484375 0.24601562 -0.6215625 0.12484375 0 0 Z " fill="#DF892A" transform="translate(35,64)"/>
<path d="M0 0 C0.66 0 1.32 0 2 0 C1.67 1.65 1.34 3.3 1 5 C0.01 5 -0.98 5 -2 5 C-2.268125 5.804375 -2.53625 6.60875 -2.8125 7.4375 C-3.204375 8.283125 -3.59625 9.12875 -4 10 C-4.99 10.33 -5.98 10.66 -7 11 C-7.33 11.66 -7.66 12.32 -8 13 C-7.01 13.33 -6.02 13.66 -5 14 C-5.33 14.66 -5.66 15.32 -6 16 C-7.65 15.01 -9.3 14.02 -11 13 C-9.76210371 9.28631113 -8.14775123 8.22645819 -5 6 C-4.34 6 -3.68 6 -3 6 C-3 5.34 -3 4.68 -3 4 C-2.34 4 -1.68 4 -1 4 C-0.67 2.68 -0.34 1.36 0 0 Z " fill="#F2B71D" transform="translate(91,33)"/>
<path d="M0 0 C0 2 0 2 -1.21875 3.51953125 C-3.2594372 5.21562873 -4.97611062 5.89247484 -7.5 6.6875 C-8.2734375 6.93886719 -9.046875 7.19023438 -9.84375 7.44921875 C-12 8 -12 8 -15 8 C-15 7.01 -15 6.02 -15 5 C-12.8765984 4.16260219 -10.7512272 3.33019717 -8.625 2.5 C-7.44164062 2.0359375 -6.25828125 1.571875 -5.0390625 1.09375 C-2 0 -2 0 0 0 Z " fill="#DF8933" transform="translate(70,49)"/>
<path d="M0 0 C0.66 0 1.32 0 2 0 C6.02539208 5.06049291 6.02539208 5.06049291 5.9375 8.3125 C5 10 5 10 2 11 C1.67 11.99 1.34 12.98 1 14 C0.67 9.38 0.34 4.76 0 0 Z " fill="#0FA8E3" transform="translate(135,34)"/>
<path d="M0 0 C0 1.32 0 2.64 0 4 C-2.52475462 5.26237731 -4.31200466 5.09856404 -7.125 5.0625 C-8.03507812 5.05347656 -8.94515625 5.04445312 -9.8828125 5.03515625 C-10.58148438 5.02355469 -11.28015625 5.01195312 -12 5 C-12 4.34 -12 3.68 -12 3 C-10.3789897 2.30314502 -8.75303934 1.61777139 -7.125 0.9375 C-6.22007813 0.55464844 -5.31515625 0.17179688 -4.3828125 -0.22265625 C-2 -1 -2 -1 0 0 Z " fill="#54A056" transform="translate(97,162)"/>
<path d="M0 0 C0.99 0.33 1.98 0.66 3 1 C-13.5648415 13 -13.5648415 13 -18 13 C-18 12.34 -18 11.68 -18 11 C-16.35 10.67 -14.7 10.34 -13 10 C-13 9.34 -13 8.68 -13 8 C-11.58671871 7.18162558 -10.16921654 6.37053781 -8.75 5.5625 C-7.96109375 5.11003906 -7.1721875 4.65757813 -6.359375 4.19140625 C-4.21166532 3.10688398 -2.34794939 2.46851284 0 2 C0 1.34 0 0.68 0 0 Z " fill="#2F5895" transform="translate(121,93)"/>
<path d="M0 0 C0.66 0.33 1.32 0.66 2 1 C1.01 2.32 0.02 3.64 -1 5 C0.32 5.66 1.64 6.32 3 7 C1.73581754 7.69965443 0.46334598 8.38434763 -0.8125 9.0625 C-1.52019531 9.44535156 -2.22789063 9.82820313 -2.95703125 10.22265625 C-5 11 -5 11 -8 10 C-5.83735988 6.01618925 -3.28788824 3.11016455 0 0 Z " fill="#C28B44" transform="translate(21,39)"/>
<path d="M0 0 C0 0.66 0 1.32 0 2 C-1.22976562 2.56267578 -1.22976562 2.56267578 -2.484375 3.13671875 C-4.10085937 3.90435547 -4.10085937 3.90435547 -5.75 4.6875 C-6.81734375 5.18636719 -7.8846875 5.68523437 -8.984375 6.19921875 C-12.17478133 8.10437071 -13.78196369 10.06759615 -16 13 C-16.66 13 -17.32 13 -18 13 C-18.33 13.66 -18.66 14.32 -19 15 C-19 12 -19 12 -17.3125 10.09765625 C-5.83877159 0 -5.83877159 0 0 0 Z " fill="#3A5D99" transform="translate(41,106)"/>
<path d="M0 0 C0.99 0.33 1.98 0.66 3 1 C-3.63729312 4.52350129 -9.513226 5.7201206 -17 6 C-15.68 5.67 -14.36 5.34 -13 5 C-13 4.34 -13 3.68 -13 3 C-10.13109771 1.56554886 -7.26195706 1.56926882 -4.09375 1.28125 C-1.94556067 1.107845 -1.94556067 1.107845 0 0 Z " fill="#D7832E" transform="translate(73,71)"/>
<path d="M0 0 C1.32 0.33 2.64 0.66 4 1 C0.29939798 4.92488093 -3.4906925 8.02215543 -8 11 C-8.66 11 -9.32 11 -10 11 C-10 10.01 -10 9.02 -10 8 C-9.01 7.67 -8.02 7.34 -7 7 C-6.34 6.01 -5.68 5.02 -5 4 C-2.375 3.3125 -2.375 3.3125 0 3 C0 2.01 0 1.02 0 0 Z " fill="#4EA04D" transform="translate(136,142)"/>
<path d="M0 0 C1.65 0 3.3 0 5 0 C2.3137382 3.12915801 -0.95391929 4.7642676 -4.5625 6.6875 C-5.71878906 7.31011719 -6.87507813 7.93273437 -8.06640625 8.57421875 C-11 10 -11 10 -13 10 C-13 9.01 -13 8.02 -13 7 C-11.02 6.34 -9.04 5.68 -7 5 C-7 4.67 -7 4.34 -7 4 C-5.35 4 -3.7 4 -2 4 C-2 3.34 -2 2.68 -2 2 C-1.34 2 -0.68 2 0 2 C0 1.34 0 0.68 0 0 Z " fill="#539D49" transform="translate(129,130)"/>
<path d="M0 0 C0 1.32 0 2.64 0 4 C-4.455 4.495 -4.455 4.495 -9 5 C-9 5.66 -9 6.32 -9 7 C-11.64 7.33 -14.28 7.66 -17 8 C-14.44006232 5.44006232 -11.78961812 4.38152865 -8.5 2.875 C-7.3346875 2.33617188 -6.169375 1.79734375 -4.96875 1.2421875 C-2 0 -2 0 0 0 Z " fill="#3E63A1" transform="translate(99,83)"/>
<path d="M0 0 C0 3 0 3 -1.390625 4.53515625 C-2.31101562 5.29119141 -2.31101562 5.29119141 -3.25 6.0625 C-4.15492187 6.82240234 -4.15492187 6.82240234 -5.078125 7.59765625 C-7.01935093 9.01411988 -8.75598837 10.13381151 -11 11 C-11.99 10.67 -12.98 10.34 -14 10 C-13.34 10 -12.68 10 -12 10 C-12 9.01 -12 8.02 -12 7 C-10.72125 6.7525 -9.4425 6.505 -8.125 6.25 C-4.77099946 5.51227607 -4.77099946 5.51227607 -2.625 2.9375 C-2.41875 2.298125 -2.2125 1.65875 -2 1 C-1.34 0.67 -0.68 0.34 0 0 Z " fill="#D3A23F" transform="translate(69,29)"/>
<path d="M0 0 C5.94 1.485 5.94 1.485 12 3 C12 3.99 12 4.98 12 6 C2.40546697 5.40546697 2.40546697 5.40546697 -1 2 C-0.67 1.34 -0.34 0.68 0 0 Z " fill="#EF9008" transform="translate(41,29)"/>
<path d="M0 0 C0.33 0.66 0.66 1.32 1 2 C0.34 2 -0.32 2 -1 2 C-1.165 2.7425 -1.33 3.485 -1.5 4.25 C-3.67674742 8.2407036 -6.916523 9.30013399 -11 11 C-9.63310446 7.84930578 -8.14342115 5.99108226 -5.5 3.8125 C-4.8915625 3.30332031 -4.283125 2.79414062 -3.65625 2.26953125 C-2 1 -2 1 0 0 Z " fill="#D58738" transform="translate(17,71)"/>
<path d="M0 0 C0 0.66 0 1.32 0 2 C1.98 2 3.96 2 6 2 C4.22555028 4.24606427 3.41647515 4.95081002 0.51953125 5.29296875 C-0.82044922 5.24076172 -0.82044922 5.24076172 -2.1875 5.1875 C-3.53908203 5.14689453 -3.53908203 5.14689453 -4.91796875 5.10546875 C-5.60503906 5.07066406 -6.29210937 5.03585938 -7 5 C-7 4.01 -7 3.02 -7 2 C-4 0 -4 0 0 0 Z " fill="#47AA47" transform="translate(120,151)"/>
<path d="M0 0 C0 3.53986194 -0.58152803 4.49515403 -3 7 C-4.32 7 -5.64 7 -7 7 C-7.33 7.99 -7.66 8.98 -8 10 C-9.9375 10.8125 -9.9375 10.8125 -12 11 C-12.66 10.34 -13.32 9.68 -14 9 C-13.15695313 8.51789063 -12.31390625 8.03578125 -11.4453125 7.5390625 C-10.34960938 6.90742187 -9.25390625 6.27578125 -8.125 5.625 C-7.03445312 4.99851562 -5.94390625 4.37203125 -4.8203125 3.7265625 C-1.98766657 2.14358549 -1.98766657 2.14358549 0 0 Z " fill="#3869A9" transform="translate(113,73)"/>
<path d="M0 0 C0.33 0 0.66 0 1 0 C1.32290808 7.7378343 1.53007672 14.92365355 -2 22 C-2.66 22.66 -3.32 23.32 -4 24 C-3.67 21.36 -3.34 18.72 -3 16 C-2.34 16 -1.68 16 -1 16 C-0.67 10.72 -0.34 5.44 0 0 Z " fill="#2C89AA" transform="translate(145,49)"/>
<path d="M0 0 C0.33 0 0.66 0 1 0 C0.72694671 6.55327899 -1.81211141 10.06930548 -6 15 C-6.66 14.34 -7.32 13.68 -8 13 C-7.34 13 -6.68 13 -6 13 C-6 12.01 -6 11.02 -6 10 C-5.34 10 -4.68 10 -4 10 C-3.566875 8.3603125 -3.566875 8.3603125 -3.125 6.6875 C-2 3 -2 3 0 0 Z " fill="#1D93BF" transform="translate(140,70)"/>
<path d="M0 0 C0.33 0 0.66 0 1 0 C1.66 2.31 2.32 4.62 3 7 C3.99 7 4.98 7 6 7 C4.515 9.475 4.515 9.475 3 12 C2.01 11.34 1.02 10.68 0 10 C-0.29296875 7.6171875 -0.29296875 7.6171875 -0.1875 4.875 C-0.16042969 3.96492188 -0.13335937 3.05484375 -0.10546875 2.1171875 C-0.07066406 1.41851562 -0.03585937 0.71984375 0 0 Z " fill="#C8853A" transform="translate(4,85)"/>
<path d="M0 0 C-0.33 2.64 -0.66 5.28 -1 8 C-2.32 7.67 -3.64 7.34 -5 7 C-5.33 5.35 -5.66 3.7 -6 2 C-2.25 0 -2.25 0 0 0 Z " fill="#F88511" transform="translate(15,80)"/>
<path d="M0 0 C5.67276511 -0.29341888 8.99067246 -0.00559652 14 3 C14 3.99 14 4.98 14 6 C13.34 5.525625 12.68 5.05125 12 4.5625 C9.20938631 3.10905537 7.77740161 2.73152821 4.75 2.4375 C3.5125 2.293125 2.275 2.14875 1 2 C0.67 1.34 0.34 0.68 0 0 Z " fill="#C9A63A" transform="translate(55,16)"/>
<path d="M0 0 C0.66 0.33 1.32 0.66 2 1 C2 1.99 2 2.98 2 4 C-0.97 4.66 -3.94 5.32 -7 6 C-7 3 -7 3 -5 1 C-5 1.66 -5 2.32 -5 3 C-3.824375 2.2265625 -3.824375 2.2265625 -2.625 1.4375 C-1.75875 0.963125 -0.8925 0.48875 0 0 Z " fill="#40A443" transform="translate(104,160)"/>
<path d="M0 0 C0.66 0.33 1.32 0.66 2 1 C1.34 3.31 0.68 5.62 0 8 C-1.65 7.67 -3.3 7.34 -5 7 C-3.35 4.69 -1.7 2.38 0 0 Z " fill="#7DA659" transform="translate(154,117)"/>
<path d="M0 0 C2.97 0 5.94 0 9 0 C8.67 0.99 8.34 1.98 8 3 C4.7 3.33 1.4 3.66 -2 4 C-1.34 3.67 -0.68 3.34 0 3 C0 2.01 0 1.02 0 0 Z " fill="#D78530" transform="translate(30,81)"/>
<path d="M0 0 C1.93719378 -0.05406122 3.87481921 -0.09282025 5.8125 -0.125 C6.89144531 -0.14820313 7.97039062 -0.17140625 9.08203125 -0.1953125 C12 0 12 0 15 2 C11.7 1.67 8.4 1.34 5 1 C5.33 1.99 5.66 2.98 6 4 C3.03 3.505 3.03 3.505 0 3 C0 2.01 0 1.02 0 0 Z " fill="#CDB359" transform="translate(78,10)"/>
<path d="M0 0 C0.66 0.66 1.32 1.32 2 2 C-0.97 6.95 -0.97 6.95 -4 12 C-5.33332095 9.3333581 -4.67102033 7.83319697 -4 5 C-3.34 5 -2.68 5 -2 5 C-1.34 3.35 -0.68 1.7 0 0 Z " fill="#87B24B" transform="translate(156,102)"/>
<path d="M0 0 C0.99 0.33 1.98 0.66 3 1 C2.01 3.31 1.02 5.62 0 8 C-0.66 8 -1.32 8 -2 8 C-2.6875 5.6875 -2.6875 5.6875 -3 3 C-1.5625 1.1875 -1.5625 1.1875 0 0 Z " fill="#7CC53A" transform="translate(140,134)"/>
<path d="M0 0 C-0.33 0.66 -0.66 1.32 -1 2 C-3.72265625 2.8515625 -3.72265625 2.8515625 -7.0625 3.625 C-8.16722656 3.88539062 -9.27195313 4.14578125 -10.41015625 4.4140625 C-11.26480469 4.60742188 -12.11945312 4.80078125 -13 5 C-12.67 4.01 -12.34 3.02 -12 2 C-7.9083139 0.19204568 -4.44280672 -0.21156222 0 0 Z " fill="#30568D" transform="translate(50,122)"/>
<path d="M0 0 C0 0.66 0 1.32 0 2 C-2.85584773 3.90389849 -4.9311762 4.69462177 -8.1875 5.625 C-9.08855469 5.88539062 -9.98960938 6.14578125 -10.91796875 6.4140625 C-11.94857422 6.70410156 -11.94857422 6.70410156 -13 7 C-13.33 6.34 -13.66 5.68 -14 5 C-12.04350603 4.16235732 -10.08474444 3.33000941 -8.125 2.5 C-6.48917969 1.80390625 -6.48917969 1.80390625 -4.8203125 1.09375 C-2 0 -2 0 0 0 Z " fill="#3E61A0" transform="translate(81,91)"/>
<path d="M0 0 C0.33 0 0.66 0 1 0 C2.32286246 4.96073422 2.08893197 9.91111512 2 15 C1.34 15 0.68 15 0 15 C-1.33257403 4.44191344 -1.33257403 4.44191344 0 0 Z " fill="#1A8BBF" transform="translate(134,34)"/>
<path d="M0 0 C0.66 0.33 1.32 0.66 2 1 C1.34 2.98 0.68 4.96 0 7 C-2.97 6.505 -2.97 6.505 -6 6 C-4 4 -2 2 0 0 Z " fill="#DD8836" transform="translate(29,33)"/>
<path d="M0 0 C0 0.66 0 1.32 0 2 C-3.21451269 3.60725635 -6.43612536 3.05748185 -10 3 C-7.29536552 -0.8183075 -4.37912428 -0.24787496 0 0 Z " fill="#E6861B" transform="translate(30,82)"/>
<path d="M0 0 C0 0.66 0 1.32 0 2 C-6.625 5.125 -6.625 5.125 -10 4 C-6.64877401 1.34213111 -4.39380802 0 0 0 Z " fill="#4B9D4A" transform="translate(110,141)"/>
<path d="M0 0 C0.99 0.33 1.98 0.66 3 1 C0.69 3.64 -1.62 6.28 -4 9 C-4.66 8.67 -5.32 8.34 -6 8 C-4.7260411 5.96166576 -3.38938077 3.96147874 -2 2 C-1.34 2 -0.68 2 0 2 C0 1.34 0 0.68 0 0 Z " fill="#7CAE4A" transform="translate(145,134)"/>
<path d="M0 0 C0.66 0.66 1.32 1.32 2 2 C-2.75 6 -2.75 6 -5 6 C-5.33 4.68 -5.66 3.36 -6 2 C-4.02 1.34 -2.04 0.68 0 0 Z " fill="#73B844" transform="translate(140,123)"/>
<path d="M0 0 C0.99 0.33 1.98 0.66 3 1 C0.36 3.64 -2.28 6.28 -5 9 C-5.66 8.01 -6.32 7.02 -7 6 C-6.01 6 -5.02 6 -4 6 C-3.34 4.68 -2.68 3.36 -2 2 C-1.34 2 -0.68 2 0 2 C0 1.34 0 0.68 0 0 Z " fill="#89B450" transform="translate(148,115)"/>
<path d="M0 0 C0.33 0.66 0.66 1.32 1 2 C-0.375 3.5 -0.375 3.5 -2 5 C-2.66 5 -3.32 5 -4 5 C-4.268125 5.639375 -4.53625 6.27875 -4.8125 6.9375 C-6 9 -6 9 -9 10 C-7.61811547 6.78956118 -6.07578097 4.95063635 -3.375 2.75 C-2.74335937 2.22921875 -2.11171875 1.7084375 -1.4609375 1.171875 C-0.73777344 0.59179688 -0.73777344 0.59179688 0 0 Z " fill="#2694C0" transform="translate(123,65)"/>
<path d="M0 0 C2.79872437 2.52788007 4.45773019 4.20411134 5 8 C2.525 7.01 2.525 7.01 0 6 C0 4.02 0 2.04 0 0 Z " fill="#819A70" transform="translate(155,60)"/>
<path d="M0 0 C0.6875 1.75 0.6875 1.75 1 4 C-0.3125 6.25 -0.3125 6.25 -2 8 C-2.66 8 -3.32 8 -4 8 C-4 8.66 -4 9.32 -4 10 C-4.99 9.67 -5.98 9.34 -7 9 C-5.76302083 7.53515625 -4.52604167 6.0703125 -3.2890625 4.60546875 C-2.10798901 3.1344954 -1.04641471 1.56962206 0 0 Z " fill="#2894BF" transform="translate(131,55)"/>
<path d="M0 0 C0.66 0.66 1.32 1.32 2 2 C0.35 3.98 -1.3 5.96 -3 8 C-4.65 7.67 -6.3 7.34 -8 7 C-7.13375 6.6596875 -7.13375 6.6596875 -6.25 6.3125 C-3.4336339 4.66961977 -1.91922886 2.60466773 0 0 Z " fill="#F6BB1E" transform="translate(101,48)"/>
<path d="M0 0 C-0.33 0.99 -0.66 1.98 -1 3 C-5.455 3.495 -5.455 3.495 -10 4 C-4.7826087 0 -4.7826087 0 0 0 Z " fill="#D58834" transform="translate(41,29)"/>
<path d="M0 0 C0.99 0.33 1.98 0.66 3 1 C-0.96 4.465 -0.96 4.465 -5 8 C-5.33 7.34 -5.66 6.68 -6 6 C-5.34 5.67 -4.68 5.34 -4 5 C-3.67 4.01 -3.34 3.02 -3 2 C-2.01 1.34 -1.02 0.68 0 0 Z " fill="#248DB9" transform="translate(130,85)"/>
<path d="M0 0 C2.72426311 2.35277269 3.8141763 4.62496331 5 8 C3.68 7.34 2.36 6.68 1 6 C1 5.34 1 4.68 1 4 C0.34 4 -0.32 4 -1 4 C-0.67 2.68 -0.34 1.36 0 0 Z " fill="#207ECA" transform="translate(112,76)"/>
<path d="M0 0 C0 0.99 0 1.98 0 3 C-1 4 -1 4 -3.5625 4.0625 C-4.7690625 4.0315625 -4.7690625 4.0315625 -6 4 C-6.33 4.99 -6.66 5.98 -7 7 C-7.33 6.01 -7.66 5.02 -8 4 C-5.36 2.68 -2.72 1.36 0 0 Z " fill="#D7862A" transform="translate(95,57)"/>
<path d="M0 0 C-0.33 1.32 -0.66 2.64 -1 4 C-3.97 3.505 -3.97 3.505 -7 3 C-4.49955934 -0.00052879 -4.2621484 0 0 0 Z " fill="#DF8C28" transform="translate(80,45)"/>
<path d="M0 0 C0.99 0 1.98 0 3 0 C3 2.31 3 4.62 3 7 C2.01 7.495 2.01 7.495 1 8 C1.33 6.68 1.66 5.36 2 4 C1.01 4 0.02 4 -1 4 C-0.67 2.68 -0.34 1.36 0 0 Z " fill="#D3A648" transform="translate(51,17)"/>
<path d="M0 0 C0.66 0 1.32 0 2 0 C2 1.65 2 3.3 2 5 C0.02 5.99 0.02 5.99 -2 7 C-1.125 2.25 -1.125 2.25 0 0 Z " fill="#94C73D" transform="translate(151,89)"/>
<path d="M0 0 C0.33 0.99 0.66 1.98 1 3 C-1.97 5.475 -1.97 5.475 -5 8 C-5.33 7.01 -5.66 6.02 -6 5 C-5.01 5 -4.02 5 -3 5 C-2.5359375 4.0409375 -2.5359375 4.0409375 -2.0625 3.0625 C-1 1 -1 1 0 0 Z " fill="#D1AB3D" transform="translate(101,51)"/>
<path d="M0 0 C-1.26607607 0.53229326 -2.53810412 1.05044544 -3.8125 1.5625 C-4.52019531 1.85253906 -5.22789063 2.14257812 -5.95703125 2.44140625 C-8 3 -8 3 -11 2 C-7.62346206 -1.37653794 -4.38842265 -1.24183024 0 0 Z " fill="#EC8522" transform="translate(40,33)"/>
<path d="M0 0 C0.33 0.99 0.66 1.98 1 3 C0.01 3.99 -0.98 4.98 -2 6 C-2.99 5.67 -3.98 5.34 -5 5 C-4.34 5 -3.68 5 -3 5 C-2.87625 4.360625 -2.7525 3.72125 -2.625 3.0625 C-2.41875 2.381875 -2.2125 1.70125 -2 1 C-1.34 0.67 -0.68 0.34 0 0 Z " fill="#52A84C" transform="translate(128,112)"/>
<path d="M0 0 C2.64 0 5.28 0 8 0 C8.33 0.99 8.66 1.98 9 3 C4.545 2.01 4.545 2.01 0 1 C0 0.67 0 0.34 0 0 Z " fill="#FAB419" transform="translate(43,29)"/>
<path d="M0 0 C1.9375 0.375 1.9375 0.375 4 1 C4.33 1.66 4.66 2.32 5 3 C4.01 4.485 4.01 4.485 3 6 C0 2.25 0 2.25 0 0 Z " fill="#3E707F" transform="translate(125,23)"/>
</svg>
